<svg width="15" height="15" viewBox="0 0 15 15" fill="none" xmlns="http://www.w3.org/2000/svg">
<path d="M3.74151 3.59249C3.1298 4.14333 2.68851 4.80373 2.3994 5.51283C1.63248 7.39361 1.99159 9.63045 3.48891 11.1734L4.87058 9.79175C4.94666 9.71566 5.08361 9.77044 5.10187 9.88305L5.85662 14.8224C5.86879 14.9045 5.7988 14.9745 5.71663 14.9624L0.774261 14.2076C0.661658 14.1894 0.606878 14.0524 0.682961 13.9763L2.06768 12.5916C-0.217864 10.2543 -0.60741 6.74842 0.89295 4.00943C1.34336 3.18468 1.96725 2.42994 2.76155 1.79693C4.11279 0.72263 5.77445 0.208308 7.42393 0.241784L7.73435 2.27168C6.31312 2.14995 4.85232 2.58819 3.74151 3.59249Z" fill="#3E3E3E"/>
<path d="M12.9323 2.37215C15.2178 4.70943 15.6074 8.21534 14.107 10.9543C13.6566 11.7791 13.0327 12.5338 12.2384 13.1668C10.8872 14.2411 9.22553 14.7555 7.57604 14.722L7.26562 12.6921C8.68382 12.8138 10.1477 12.3756 11.2585 11.3713C11.8702 10.8204 12.3115 10.16 12.6006 9.45093C13.3675 7.57016 13.0084 5.33331 11.5111 3.79034L10.1294 5.17201C10.0533 5.2481 9.91636 5.19332 9.8981 5.08071L9.14336 0.141392C9.13119 0.0592218 9.20118 -0.0107749 9.28335 0.00139838L14.2257 0.756143C14.3383 0.774403 14.3901 0.911353 14.317 0.987437L12.9323 2.37215Z" fill="#3E3E3E"/>
</svg>
